<svg width="66" height="66" viewBox="0 0 66 66" fill="none" xmlns="http://www.w3.org/2000/svg">
<g clip-path="url(#clip0_41_525)">
<path d="M33 66C51.2254 66 66 51.2254 66 33C66 14.7746 51.2254 0 33 0C14.7746 0 0 14.7746 0 33C0 51.2254 14.7746 66 33 66Z" fill="url(#paint0_linear_41_525)"/>
<path d="M22.3379 35.4123L26.2531 46.249C26.2531 46.249 26.7426 47.2629 27.2667 47.2629C27.7909 47.2629 35.5868 39.1526 35.5868 39.1526L44.2562 22.4078L22.4776 32.615L22.3379 35.4123Z" fill="#C8DAEA"/>
<path d="M27.5294 38.1915L26.7778 46.1791C26.7778 46.1791 26.4632 48.6266 28.9102 46.1791C31.3571 43.7316 33.6993 41.8443 33.6993 41.8443" fill="#A9C6D8"/>
<path d="M22.4083 35.7989L14.3547 33.1749C14.3547 33.1749 13.3922 32.7844 13.7021 31.8989C13.7659 31.7163 13.8946 31.5609 14.2796 31.2939C16.0641 30.0501 47.3088 18.8199 47.3088 18.8199C47.3088 18.8199 48.191 18.5226 48.7113 18.7203C48.84 18.7602 48.9558 18.8335 49.0469 18.9328C49.138 19.0321 49.201 19.1538 49.2296 19.2855C49.2859 19.518 49.3094 19.7573 49.2995 19.9963C49.297 20.2031 49.272 20.3948 49.253 20.6954C49.0627 23.7658 43.368 46.681 43.368 46.681C43.368 46.681 43.0273 48.0219 41.8066 48.0678C41.5066 48.0775 41.2077 48.0267 40.9278 47.9184C40.6478 47.8101 40.3926 47.6465 40.1772 47.4375C37.7817 45.3769 29.502 39.8126 27.6724 38.5888C27.6311 38.5607 27.5964 38.524 27.5705 38.4813C27.5446 38.4386 27.5281 38.3909 27.5222 38.3413C27.4967 38.2123 27.6369 38.0526 27.6369 38.0526C27.6369 38.0526 42.0541 25.2376 42.4377 23.8923C42.4674 23.788 42.3552 23.7366 42.2045 23.7823C41.2469 24.1345 24.6474 34.6173 22.8153 35.7742C22.6835 35.8141 22.5441 35.8226 22.4083 35.7989Z" fill="white"/>
</g>
<defs>
<linearGradient id="paint0_linear_41_525" x1="33" y1="66" x2="33" y2="0" gradientUnits="userSpaceOnUse">
<stop stop-color="#1D93D2"/>
<stop offset="1" stop-color="#38B0E3"/>
</linearGradient>
<clipPath id="clip0_41_525">
<rect width="66" height="66" fill="white"/>
</clipPath>
</defs>
</svg>
