<svg width="66" height="66" viewBox="0 0 66 66" fill="none" xmlns="http://www.w3.org/2000/svg">
<path d="M33.0129 9.18159e-05C14.8099 9.18159e-05 0.00650973 14.7974 3.4289e-05 32.9855C-0.00893039 39.1962 1.7401 45.2826 5.04494 50.5412L5.83009 51.7892L2.49578 63.9614L14.9858 60.6866L16.1919 61.401C21.2573 64.4071 27.0652 65.9968 32.9881 66H33.0005C51.1894 66 65.9928 51.2011 65.9998 33.0119C66.0136 28.6766 65.1672 24.3816 63.5096 20.3756C61.8521 16.3696 59.4163 12.7322 56.3433 9.67393C53.2874 6.59894 49.6519 4.1606 45.6472 2.50008C41.6425 0.839558 37.3482 -0.0101682 33.0129 9.18159e-05Z" fill="url(#paint0_linear_41_533)"/>
<path fill-rule="evenodd" clip-rule="evenodd" d="M23.5752 17.9177C22.8857 16.389 22.1602 16.3581 21.5052 16.3316L19.742 16.3101C19.1285 16.3101 18.1318 16.5398 17.2892 17.4588C16.4466 18.3777 14.0693 20.5985 14.0693 25.1156C14.0693 29.6328 17.3657 33.9976 17.8251 34.6108C18.2844 35.2241 24.1887 44.7892 33.539 48.4693C41.3091 51.5277 42.8903 50.9194 44.5775 50.7666C46.2647 50.6138 50.0199 48.5457 50.786 46.4018C51.552 44.2579 51.5525 42.421 51.3229 42.037C51.0932 41.653 50.4798 41.4247 49.5591 40.9653C48.6384 40.5058 44.1166 38.285 43.2735 37.9783C42.4304 37.6717 41.8175 37.5194 41.2035 38.4383C40.5896 39.3572 38.8288 41.4242 38.2919 42.037C37.755 42.6498 37.2191 42.7267 36.2985 42.2677C35.3778 41.8088 32.4157 40.8389 28.9011 37.7111C26.1666 35.2775 24.3208 32.2721 23.7834 31.3537C23.246 30.4353 23.7263 29.9379 24.1877 29.4804C24.6005 29.0689 25.1073 28.4082 25.5682 27.8724C26.029 27.3365 26.1806 26.9535 26.4869 26.3417C26.7931 25.7299 26.6405 25.1925 26.4103 24.7336C26.1801 24.2746 24.3928 19.7335 23.5752 17.9177Z" fill="white"/>
<defs>
<linearGradient id="paint0_linear_41_533" x1="32.3281" y1="3.96071" x2="32.6626" y2="60.3618" gradientUnits="userSpaceOnUse">
<stop stop-color="#57D163"/>
<stop offset="1" stop-color="#23B33A"/>
</linearGradient>
</defs>
</svg>
